<svg width="100" height="80" viewBox="0 0 100 80" fill="none" xmlns="http://www.w3.org/2000/svg">
<g id="preparation 1">
<path id="Vector" d="M19.1759 75.5556H70.7888C71.5806 75.5556 72.2225 75.0421 72.2225 74.4086V14.767C72.2233 14.5523 72.1488 14.3417 72.0074 14.1592L64.839 4.98353C64.5764 4.64749 64.1157 4.44367 63.6203 4.44446H19.1759C18.3841 4.44446 17.7422 4.95797 17.7422 5.59141V74.4086C17.7422 75.0421 18.3841 75.5556 19.1759 75.5556ZM20.6096 6.73837H62.0003L60.7529 14.6294C60.7034 14.9532 60.8285 15.2785 61.097 15.524C61.3721 15.7745 61.7698 15.9169 62.1866 15.914H69.3551V73.2617H20.6096L20.6096 6.73837Z" fill="#FF0007"/>
<path id="Vector_2" d="M39.0178 22.1419L37.3977 20.8344L35.3619 22.4631L38.2293 24.757C38.4998 24.9717 38.8661 25.0914 39.2472 25.0896H39.3905C39.8186 25.052 40.2029 24.8625 40.4371 24.5735L46.1719 17.6918L43.792 16.4301L39.0178 22.1419ZM39.0178 40.4932L37.3977 39.1857L35.3619 40.8143L38.2293 43.1082C38.4998 43.3229 38.8661 43.4426 39.2472 43.4409H39.3905C39.8186 43.4033 40.2029 43.2138 40.4371 42.9247L46.1719 36.043L43.792 34.7814L39.0178 40.4932ZM39.0178 58.8445L37.3977 57.5369L35.3619 59.1656L38.2293 61.4595C38.4998 61.6742 38.8661 61.7939 39.2472 61.7921H39.3905C39.8186 61.7545 40.2029 61.565 40.4371 61.276L46.1719 54.3943L43.792 53.1326L39.0178 58.8445ZM24.9103 18.2079H30.645C31.4368 18.2079 32.0787 18.7214 32.0787 19.3548V23.9427C32.0787 24.5761 31.4368 25.0896 30.645 25.0896H24.9103C24.1184 25.0896 23.4766 24.5761 23.4766 23.9427V19.3548C23.4766 18.7214 24.1184 18.2079 24.9103 18.2079ZM24.9103 9.03227H30.645C31.4368 9.03227 32.0787 9.54578 32.0787 10.1792V14.767C32.0787 15.4005 31.4368 15.914 30.645 15.914H24.9103C24.1184 15.914 23.4766 15.4005 23.4766 14.767V10.1792C23.4766 9.54578 24.1184 9.03227 24.9103 9.03227ZM24.9103 27.3835H30.645C31.4368 27.3835 32.0787 27.897 32.0787 28.5305V33.1183C32.0787 33.7517 31.4368 34.2652 30.645 34.2652H24.9103C24.1184 34.2652 23.4766 33.7517 23.4766 33.1183V28.5305C23.4766 27.897 24.1184 27.3835 24.9103 27.3835ZM24.9103 36.5591H30.645C31.4368 36.5591 32.0787 37.0727 32.0787 37.7061V42.2939C32.0787 42.9274 31.4368 43.4409 30.645 43.4409H24.9103C24.1184 43.4409 23.4766 42.9274 23.4766 42.2939V37.7061C23.4766 37.0727 24.1184 36.5591 24.9103 36.5591ZM24.9103 45.7348H30.645C31.4368 45.7348 32.0787 46.2483 32.0787 46.8817V51.4695C32.0787 52.103 31.4368 52.6165 30.645 52.6165H24.9103C24.1184 52.6165 23.4766 52.103 23.4766 51.4695V46.8817C23.4766 46.2483 24.1184 45.7348 24.9103 45.7348ZM24.9103 54.9104H30.645C31.4368 54.9104 32.0787 55.4239 32.0787 56.0574V60.6452C32.0787 61.2786 31.4368 61.7921 30.645 61.7921H24.9103C24.1184 61.7921 23.4766 61.2786 23.4766 60.6452V56.0574C23.4766 55.4239 24.1184 54.9104 24.9103 54.9104ZM24.9103 64.086H30.645C31.4368 64.086 32.0787 64.5995 32.0787 65.233V69.8208C32.0787 70.4542 31.4368 70.9677 30.645 70.9677H24.9103C24.1184 70.9677 23.4766 70.4542 23.4766 69.8208V65.233C23.4766 64.5995 24.1184 64.086 24.9103 64.086ZM37.2257 34.0703L39.2472 32.4416L41.2687 34.0703L43.3045 32.4416L41.2687 30.8244L43.3045 29.2072L41.2687 27.5785L39.2472 29.2072L37.2257 27.5785L35.1898 29.2072L37.2257 30.8244L35.1898 32.4416L37.2257 34.0703ZM37.0393 52.5591L39.0751 50.9305L41.0966 52.5591L43.1325 50.9419L41.0966 49.3133L43.1325 47.6961L41.0966 46.0674L39.0751 47.6961L37.0393 46.0674L35.0178 47.6961L37.0393 49.3133L35.0178 50.9419L37.0393 52.5591ZM41.0966 64.1434L39.0751 65.772L37.0393 64.1434L35.0178 65.7606L37.0393 67.3892L35.0178 69.0065L37.0393 70.6351L39.0751 69.0065L41.0966 70.6351L43.1325 69.0065L41.0966 67.3892L43.1325 65.7606L41.0966 64.1434ZM46.4156 22.7957H66.4873V25.0896H46.4156V22.7957ZM55.0178 18.2079H66.4873V20.5018H55.0178V18.2079ZM46.4156 41.147H66.4873V43.4409H46.4156V41.147ZM55.0178 36.5591H66.4873V38.8531H55.0178V36.5591ZM46.4156 59.4982H66.4873V61.7921H46.4156V59.4982ZM55.0178 54.9104H66.4873V57.2043H55.0178V54.9104ZM82.2579 10.1792C82.2579 8.91233 80.9741 7.88531 79.3905 7.88531C77.8069 7.88531 76.5232 8.91233 76.5232 10.1792V13.6201H82.2579V10.1792ZM82.2579 62.9391H76.5232L79.3905 72.1147L82.2579 62.9391ZM76.5232 15.914H82.2579V60.6452H76.5232V15.914Z" fill="#FF0007"/>
</g>
</svg>
