<svg width="156" height="42" viewBox="0 0 156 42" fill="none" xmlns="http://www.w3.org/2000/svg">
<g id="Zealy_Logo_Black 1" clip-path="url(#clip0_258_122)">
<path id="Vector" fill-rule="evenodd" clip-rule="evenodd" d="M2.29181 4.62102L0.942364 4.5372L0.936252 6.1359L0.93557 6.46915C0.935165 6.72875 0.934628 7.1769 0.934091 7.93195C0.933016 9.44195 0.931942 12.1803 0.931942 17.0942V17.7253L2.53084 19.617C1.89776 20.0883 1.26167 20.5541 0.62267 21.0145L0.00500372 21.4595L0 31.9981L7.37505 40.729L7.8592 40.7665C16.9087 41.4658 26.2154 40.6899 34.9353 37.1307L35.8033 36.7765V24.1127L33.9168 21.8809C34.2383 21.5055 34.5589 21.1269 34.8773 20.746L35.2494 20.3008V19.6745C35.2494 19.2423 35.2505 16.9788 35.2516 14.8224L35.254 9.987L27.6578 1L26.9017 1.29966C19.0509 4.41119 10.6306 5.139 2.29181 4.62102ZM27.3109 2.74459L33.9657 10.6178C33.9657 10.6178 33.9614 18.8089 33.9614 19.6745C33.6451 20.053 33.3261 20.4296 33.006 20.8034C32.6995 21.1613 32.392 21.5166 32.0848 21.8685L34.5153 24.7439V35.6902C26.0051 39.1638 16.8809 39.9366 7.94317 39.2458L1.28833 31.3675L1.29263 22.316C2.02037 21.7916 2.74443 21.2603 3.46471 20.7218C3.83642 20.444 4.20711 20.1642 4.57677 19.8825L2.21997 17.0942C2.21997 11.8785 2.22118 9.1143 2.22232 7.6686C2.22333 6.3903 2.22427 6.14275 2.22427 6.14275C2.65319 6.1694 3.0825 6.1928 3.51212 6.2128C11.5359 6.5864 19.6672 5.77405 27.3109 2.74459Z" fill="white"/>
<path id="Vector_2" fill-rule="evenodd" clip-rule="evenodd" d="M2.22403 6.14279C10.6635 6.66704 19.2576 5.93629 27.3106 2.74463L33.9654 10.6178C33.9654 10.6178 33.9611 18.8089 33.9611 19.6746C33.3418 20.4156 32.7125 21.1491 32.0846 21.8685L34.515 24.744V35.6903C26.0048 39.1638 16.8806 39.9366 7.9429 39.2459L1.28809 31.3676L1.29239 22.316C2.39568 21.521 3.49053 20.7101 4.57654 19.8825L2.21973 17.0942C2.21973 7.26689 2.22403 6.14279 2.22403 6.14279Z" fill="#0D0D0D"/>
<path id="Vector_3" d="M31.3852 14.6003V18.989C27.2334 23.6723 23.0816 27.7562 18.9342 31.3982C23.2706 31.0579 27.6026 30.2401 31.9433 28.7569C31.9433 30.3772 31.9433 31.9925 31.9433 33.6129C25.9582 35.665 19.9775 36.4422 13.9967 36.4422C12.8375 36.4422 11.6783 36.4117 10.519 36.3558V31.9671C14.6708 28.8432 18.8225 25.3942 22.97 21.4475C19.9861 21.8995 17.0021 22.0926 14.0181 22.0926C13.1594 22.0926 12.3051 22.0773 11.4464 22.0468C11.4464 20.4265 11.4464 18.8112 11.4464 17.1908C12.2965 17.2213 13.1423 17.2365 13.9924 17.2365C19.7886 17.2365 25.5847 16.5102 31.3808 14.5952L31.3852 14.6003Z" fill="white"/>
<path id="Vector_4" d="M72.2287 30.7547V25.1227H59.8339L71.4129 16.6196V11.2454H51.1107V16.8773H61.8739L50.2949 25.3804V30.7547H72.2287Z" fill="white"/>
<path id="Vector_5" d="M96.7464 24.4601H89.6547C89.0269 25.5644 88.2111 25.9325 85.1047 25.9325C81.6843 25.9325 80.4921 25.5276 80.3979 22.3251H96.8717V20.3373C96.8717 13.049 93.169 10.8772 85.2301 10.8772H84.728C76.789 10.8772 73.3374 13.049 73.3374 20.3373V21.6625C73.3374 28.9509 76.789 31.1227 84.728 31.1227H85.2927C93.3574 31.1227 95.8363 29.2822 96.7464 24.4601ZM85.1047 15.5889C88.3995 15.5889 89.8116 16.1778 89.8116 18.5337V18.6809H80.429C80.6489 15.9938 81.9668 15.5889 85.1047 15.5889Z" fill="white"/>
<path id="Vector_6" d="M121.526 30.7546V19.1962C121.526 12.8281 119.236 10.8772 111.077 10.8772H110.481C102.636 10.8772 100.22 13.1226 99.059 17.2085H106.402C106.904 16.1042 107.72 15.6257 110.356 15.6257C113.462 15.6257 114.466 16.1778 114.466 18.4232V18.7177L104.237 19.1226C100.597 19.2699 98.3374 20.7055 98.3374 24.5337V24.8282C98.3374 28.9878 100.722 31.1227 106.465 31.1227C111.109 31.1227 113.431 29.7608 114.278 27.2945H114.466V30.7546H121.526ZM105.461 24.681V24.5337C105.461 23.3926 106.151 22.9141 107.877 22.8405L114.466 22.5828V22.8405C114.466 25.2699 112.364 26.6687 108.912 26.6687C106.402 26.6687 105.461 26.1166 105.461 24.681Z" fill="white"/>
<path id="Vector_7" d="M130.628 30.7546V4.98755H123.568V30.7546H130.628Z" fill="white"/>
<path id="Vector_8" d="M144.547 37.0124L156 11.2454H148.783L144.264 22.8405H144.045L139.338 11.2454H131.744L140.248 30.8651L137.141 37.0124H144.547Z" fill="white"/>
</g>
<defs>
<clipPath id="clip0_258_122">
<rect width="156" height="42" fill="white"/>
</clipPath>
</defs>
</svg>
